<mxfile host="app.diagrams.net" agent="Mozilla/5.0 (Windows NT 10.0; Win64; x64) AppleWebKit/537.36 (KHTML, like Gecko) Chrome/129.0.0.0 Safari/537.36" version="24.7.17">
  <diagram name="Page-1" id="vMZXCf5hJNPbtXwXq9Np">
    <mxGraphModel dx="954" dy="592" grid="1" gridSize="10" guides="1" tooltips="1" connect="1" arrows="1" fold="1" page="1" pageScale="1" pageWidth="827" pageHeight="1169" math="0" shadow="0">
      <root>
        <mxCell id="0" />
        <mxCell id="1" parent="0" />
        <mxCell id="4UOYgTSyyYS-mhcnfII3-1" value="user login" style="ellipse;whiteSpace=wrap;html=1;" vertex="1" parent="1">
          <mxGeometry x="330" y="50" width="120" height="80" as="geometry" />
        </mxCell>
        <mxCell id="4UOYgTSyyYS-mhcnfII3-2" value="" style="endArrow=classic;startArrow=classic;html=1;rounded=0;" edge="1" parent="1">
          <mxGeometry width="50" height="50" relative="1" as="geometry">
            <mxPoint x="400" y="210" as="sourcePoint" />
            <mxPoint x="400" y="130" as="targetPoint" />
          </mxGeometry>
        </mxCell>
        <mxCell id="4UOYgTSyyYS-mhcnfII3-3" value="HOME Page" style="whiteSpace=wrap;html=1;aspect=fixed;" vertex="1" parent="1">
          <mxGeometry x="310" y="160" width="190" height="190" as="geometry" />
        </mxCell>
        <mxCell id="4UOYgTSyyYS-mhcnfII3-4" value="" style="endArrow=none;html=1;rounded=0;" edge="1" parent="1" target="4UOYgTSyyYS-mhcnfII3-5">
          <mxGeometry width="50" height="50" relative="1" as="geometry">
            <mxPoint x="450" y="100" as="sourcePoint" />
            <mxPoint x="520" y="100" as="targetPoint" />
          </mxGeometry>
        </mxCell>
        <mxCell id="4UOYgTSyyYS-mhcnfII3-6" style="edgeStyle=orthogonalEdgeStyle;rounded=0;orthogonalLoop=1;jettySize=auto;html=1;exitX=0.5;exitY=0;exitDx=0;exitDy=0;" edge="1" parent="1" source="4UOYgTSyyYS-mhcnfII3-5">
          <mxGeometry relative="1" as="geometry">
            <mxPoint x="610" y="50" as="targetPoint" />
          </mxGeometry>
        </mxCell>
        <mxCell id="4UOYgTSyyYS-mhcnfII3-7" style="edgeStyle=orthogonalEdgeStyle;rounded=0;orthogonalLoop=1;jettySize=auto;html=1;exitX=0.5;exitY=1;exitDx=0;exitDy=0;" edge="1" parent="1" source="4UOYgTSyyYS-mhcnfII3-5">
          <mxGeometry relative="1" as="geometry">
            <mxPoint x="510" y="320" as="targetPoint" />
            <Array as="points">
              <mxPoint x="610" y="320" />
            </Array>
          </mxGeometry>
        </mxCell>
        <mxCell id="4UOYgTSyyYS-mhcnfII3-5" value="user Reg Page&lt;div&gt;Using OAuth 2.0&amp;nbsp;&lt;/div&gt;" style="ellipse;whiteSpace=wrap;html=1;aspect=fixed;" vertex="1" parent="1">
          <mxGeometry x="570" y="60" width="110" height="110" as="geometry" />
        </mxCell>
        <mxCell id="4UOYgTSyyYS-mhcnfII3-10" value="order page" style="shape=hexagon;perimeter=hexagonPerimeter2;whiteSpace=wrap;html=1;fixedSize=1;" vertex="1" parent="1">
          <mxGeometry x="354" y="440" width="120" height="80" as="geometry" />
        </mxCell>
        <mxCell id="4UOYgTSyyYS-mhcnfII3-11" value="" style="endArrow=none;html=1;rounded=0;" edge="1" parent="1">
          <mxGeometry width="50" height="50" relative="1" as="geometry">
            <mxPoint x="420" y="430" as="sourcePoint" />
            <mxPoint x="440" y="350" as="targetPoint" />
          </mxGeometry>
        </mxCell>
        <mxCell id="4UOYgTSyyYS-mhcnfII3-12" value="" style="endArrow=classic;startArrow=classic;html=1;rounded=0;" edge="1" parent="1">
          <mxGeometry width="50" height="50" relative="1" as="geometry">
            <mxPoint x="430" y="600" as="sourcePoint" />
            <mxPoint x="430" y="520" as="targetPoint" />
          </mxGeometry>
        </mxCell>
        <mxCell id="4UOYgTSyyYS-mhcnfII3-14" value="Address Page&amp;nbsp;" style="whiteSpace=wrap;html=1;aspect=fixed;" vertex="1" parent="1">
          <mxGeometry x="310" y="610" width="190" height="190" as="geometry" />
        </mxCell>
        <mxCell id="4UOYgTSyyYS-mhcnfII3-15" value="orders success message" style="whiteSpace=wrap;html=1;aspect=fixed;" vertex="1" parent="1">
          <mxGeometry x="330" y="870" width="190" height="190" as="geometry" />
        </mxCell>
        <mxCell id="4UOYgTSyyYS-mhcnfII3-16" value="" style="endArrow=none;html=1;rounded=0;" edge="1" parent="1">
          <mxGeometry width="50" height="50" relative="1" as="geometry">
            <mxPoint x="439" y="1120" as="sourcePoint" />
            <mxPoint x="439" y="1060" as="targetPoint" />
          </mxGeometry>
        </mxCell>
        <mxCell id="4UOYgTSyyYS-mhcnfII3-17" value="email using kafka" style="whiteSpace=wrap;html=1;aspect=fixed;" vertex="1" parent="1">
          <mxGeometry x="330" y="1130" width="180" height="180" as="geometry" />
        </mxCell>
      </root>
    </mxGraphModel>
  </diagram>
</mxfile>
